<svg xmlns="http://www.w3.org/2000/svg" viewBox="0 0 28.808 28.808" width="512" height="512"><g fill="#fff"><path d="M21.473 6.081c1.105 0 2-.889 2-1.994V1.998a1.997 1.997 0 0 0-2-1.998 1.994 1.994 0 0 0-1.996 1.998v2.089c0 1.105.892 1.994 1.996 1.994z"/><path d="M28.572 3.457h-4.021v1.017a3.046 3.046 0 0 1-3.043 3.043 3.043 3.043 0 0 1-3.041-3.043V3.457H10.35v1.017c0 1.676-1.363 3.043-3.043 3.043S4.266 6.149 4.266 4.473V3.457L.207 3.406v25.402h26.369l2.025-.006-.029-25.345zm-1.996 23.328H2.236V10.557h24.34v16.228z"/><path d="M7.275 6.081a1.993 1.993 0 0 0 1.998-1.994V1.998A1.995 1.995 0 0 0 7.275 0a1.995 1.995 0 0 0-1.996 1.998v2.089c0 1.105.893 1.994 1.996 1.994zm3.082 6.654h3.195v2.821h-3.195zm5.168 0h3.199v2.821h-3.199zm4.793 0h3.195v2.821h-3.195zm-9.961 4.685h3.195v2.819h-3.195zm5.168 0h3.199v2.819h-3.199zm4.793 0h3.195v2.819h-3.195zm-9.961 4.778h3.195v2.819h-3.195zM5.279 17.42h3.193v2.819H5.279zm0 4.778h3.193v2.819H5.279zm10.246 0h3.199v2.819h-3.199zm4.793 0h3.195v2.819h-3.195z"/></g></svg>