<svg xmlns="http://www.w3.org/2000/svg" viewBox="0 0 508.52 508.52"><path d="M413.172 0H95.347C77.804 0 63.565 14.239 63.565 31.782v444.955c0 12.84 7.755 24.473 19.61 29.367a31.973 31.973 0 0 0 12.173 2.415c8.263 0 16.4-3.242 22.47-9.312L254.26 362.765l136.442 136.442a31.794 31.794 0 0 0 22.47 9.312c4.1 0 8.232-.795 12.141-2.415 11.887-4.894 19.642-16.527 19.642-29.367V31.782C444.955 14.239 430.716 0 413.172 0zm0 476.737L254.26 317.825 95.347 476.737V127.13h317.825v349.607zm0-381.39H95.347V31.782h317.825v63.565z" fill="#090509"/></svg>