<svg xmlns="http://www.w3.org/2000/svg" width="441.6" height="441.6" viewBox="0 0 441.6 441.6"><g fill="#FFF"><path d="M406.975 205.046v5.087c0 46.294-37.663 83.958-83.958 83.958H201.071v10.472c0 22.139 17.946 40.084 40.083 40.084h101.938l46.158 45.411a8.626 8.626 0 0 0 9.377 1.807 8.624 8.624 0 0 0 5.289-7.951v-39.345c21.019-1.242 37.683-18.675 37.683-40.006V244.75c.001-20.283-15.071-37.039-34.624-39.704z"/><path d="M383.787 208.459v-95.437c0-35.323-28.636-63.958-63.958-63.958H63.958C28.635 49.064 0 77.699 0 113.022v95.437c0 34.037 26.589 61.851 60.126 63.833v62.777a13.756 13.756 0 0 0 13.751 13.755 13.75 13.75 0 0 0 9.649-3.95l73.65-72.457h162.651c35.325.001 63.96-28.634 63.96-63.958z"/></g></svg>